<svg width="12" height="12" viewBox="0 0 12 12" fill="none" xmlns="http://www.w3.org/2000/svg">
<g id="Category">
<path id="Stroke 1" fill-rule="evenodd" clip-rule="evenodd" d="M0.75 2.79167C0.75 1.26029 0.766397 0.75 2.79167 0.75C4.81694 0.75 4.83333 1.26029 4.83333 2.79167C4.83333 4.32304 4.83979 4.83333 2.79167 4.83333C0.743541 4.83333 0.75 4.32304 0.75 2.79167Z" stroke="#312928" stroke-width="0.875" stroke-linecap="round" stroke-linejoin="round"/>
<path id="Stroke 3" fill-rule="evenodd" clip-rule="evenodd" d="M7.1665 2.79167C7.1665 1.26029 7.1829 0.75 9.20817 0.75C11.2334 0.75 11.2498 1.26029 11.2498 2.79167C11.2498 4.32304 11.2563 4.83333 9.20817 4.83333C7.16004 4.83333 7.1665 4.32304 7.1665 2.79167Z" stroke="#312928" stroke-width="0.875" stroke-linecap="round" stroke-linejoin="round"/>
<path id="Stroke 5" fill-rule="evenodd" clip-rule="evenodd" d="M0.75 9.20829C0.75 7.67692 0.766397 7.16663 2.79167 7.16663C4.81694 7.16663 4.83333 7.67692 4.83333 9.20829C4.83333 10.7397 4.83979 11.25 2.79167 11.25C0.743541 11.25 0.75 10.7397 0.75 9.20829Z" stroke="#312928" stroke-width="0.875" stroke-linecap="round" stroke-linejoin="round"/>
<path id="Stroke 7" fill-rule="evenodd" clip-rule="evenodd" d="M7.1665 9.20829C7.1665 7.67692 7.1829 7.16663 9.20817 7.16663C11.2334 7.16663 11.2498 7.67692 11.2498 9.20829C11.2498 10.7397 11.2563 11.25 9.20817 11.25C7.16004 11.25 7.1665 10.7397 7.1665 9.20829Z" stroke="#312928" stroke-width="0.875" stroke-linecap="round" stroke-linejoin="round"/>
</g>
</svg>
